<?xml version="1.0" encoding="utf-8"?>
  Generator: Adobe Illustrator 24.1.0, SVG Export Plug-In . SVG Version: 6.00 Build 0)  -->
<svg version="1.1" id="Layer_1" xmlns="http://www.w3.org/2000/svg" xmlns:xlink="http://www.w3.org/1999/xlink" x="0px" y="0px"
	 viewBox="0 0 530 108" style="enable-background:new 0 0 530 108;" xml:space="preserve">
<style type="text/css">
	.st0{fill:#626366;}
	.st1{fill:#0202EA;}
</style>
<g>
	<g>
		<path className="st0" d="M133.5,45.7c-2.3,0-6.2,0.5-9.2,3.5V33.8c0-1.6-1.3-2.9-2.9-2.9H121c-1.6,0-2.9,1.3-2.9,2.9v40.6
			c0,1.6,1.3,2.9,2.9,2.9h0.4c1.6,0,2.9-1.3,2.9-2.9V60c0-4.9,3.4-8.3,8.3-8.3c4.9,0,7.6,3,7.6,8.2v14.5c0,1.6,1.3,2.9,2.9,2.9h0.5
			c1.6,0,2.9-1.3,2.9-2.9V58.2C146.5,50.7,141.3,45.7,133.5,45.7"/>
		<path className="st0" d="M175.7,58.9h-17c1-4.7,4.2-7.6,8.7-7.6C171.8,51.4,174.9,54.2,175.7,58.9 M167.5,45.7
			c-8.9,0-15.4,6.8-15.4,16.1c0,9.5,6.5,16.1,15.7,16.1c4.4,0,7.9-1.1,11-3.3c0.5-0.4,0.9-1,1-1.7c0.1-0.7-0.1-1.4-0.5-2
			c-1-1.3-2.7-1.6-4.1-0.7c-2.2,1.4-4.6,2.1-7.1,2.1c-5.1,0-8.7-3.1-9.5-8.1h21c1.4,0,2.5-1.1,2.5-2.5v0
			C182,52.3,176,45.7,167.5,45.7"/>
		<path className="st0" d="M201.8,72c-5.6,0-9.7-4.3-9.7-10.2c0-5.9,4.1-10.2,9.7-10.2c5.6,0,9.7,4.3,9.7,10.2
			C211.5,67.7,207.5,72,201.8,72 M214.6,46.3h-0.5c-1.6,0-2.9,1.3-2.9,2.9v0.3c-2.6-2.5-6-3.8-10-3.8c-8.8,0-15.5,6.9-15.5,16.1
			s6.7,16.1,15.5,16.1c4,0,7.4-1.3,10-3.8v0.2c0,1.6,1.3,2.9,2.9,2.9h0.5c1.6,0,2.9-1.3,2.9-2.9V49.2
			C217.5,47.6,216.2,46.3,214.6,46.3"/>
		<path className="st0" d="M228,30.9h-0.4c-1.6,0-2.9,1.3-2.9,2.9v40.6c0,1.6,1.3,2.9,2.9,2.9h0.4c1.6,0,2.9-1.3,2.9-2.9V33.8
			C230.8,32.2,229.5,30.9,228,30.9"/>
		<path className="st0" d="M257,71.1c-1.4,0.6-2.8,0.9-4.1,0.9c-3.3,0-5.1-2.1-5.1-5.9v-14h9.6c1.6,0,2.9-1.3,2.9-2.9s-1.3-2.9-2.9-2.9
			h-9.6v-6.5c0-1.6-1.3-2.9-2.9-2.9h-0.5c-1.6,0-2.9,1.3-2.9,2.9v6.5h-3.5c-1.6,0-2.9,1.3-2.9,2.9s1.3,2.9,2.9,2.9h3.5v14.1
			c0,7.6,3.9,11.7,10.9,11.7c2.5,0,4.9-0.6,7.1-1.7c0.7-0.4,1.2-1,1.4-1.8c0.2-0.8,0.1-1.6-0.3-2.3C259.9,70.9,258.3,70.4,257,71.1"
			/>
		<path className="st0" d="M281.4,45.7c-2.3,0-6.2,0.5-9.2,3.5V33.8c0-1.6-1.3-2.9-2.9-2.9h-0.4c-1.6,0-2.9,1.3-2.9,2.9v40.6
			c0,1.6,1.3,2.9,2.9,2.9h0.4c1.6,0,2.9-1.3,2.9-2.9V60c0-4.9,3.4-8.3,8.3-8.3c4.9,0,7.6,3,7.6,8.2v14.5c0,1.6,1.3,2.9,2.9,2.9h0.5
			c1.6,0,2.9-1.3,2.9-2.9V58.2C294.4,50.7,289.1,45.7,281.4,45.7"/>
		<path className="st0" d="M325.5,61.6c0,5.8-4,9.9-9.6,9.9c-5.5,0-9.6-4.2-9.6-9.9c0-5.7,4-9.9,9.6-9.9
			C321.4,51.6,325.5,55.8,325.5,61.6 M328.4,46.3h-0.5c-1.6,0-2.9,1.3-2.9,2.9v0.3c-2.5-2.5-5.8-3.8-9.7-3.8
			c-8.9,0-15.3,6.7-15.3,15.9c0,9.2,6.4,15.9,15.3,15.9c3.9,0,7.3-1.3,9.7-3.7v1.2c0,6.1-3.8,9.7-10.2,9.7c-2.8,0-5.6-0.7-8.1-2.1
			c-0.7-0.4-1.4-0.4-2.1-0.2c-0.7,0.2-1.3,0.7-1.7,1.4l-0.1,0.1c-0.7,1.4-0.2,3.1,1.1,3.9c3,1.7,7,2.7,10.9,2.7
			c10.1,0,16.4-6,16.4-15.7V49.2C331.3,47.6,330,46.3,328.4,46.3"/>
		<path className="st0" d="M355.8,45.9c-0.9-0.2-1.9-0.2-3-0.2c-3.2,0-6.1,1.2-8.2,3.5v0c0-1.6-1.3-2.9-2.9-2.9h-0.4
			c-1.6,0-2.9,1.3-2.9,2.9v25.2c0,1.6,1.3,2.9,2.9,2.9h0.4c1.6,0,2.9-1.3,2.9-2.9V60.1c0-5,2.9-8.4,7.2-8.4c0.9,0,1.8,0.1,2.7,0.3
			c1.6,0.4,3.2-0.6,3.6-2.1l0-0.2c0.2-0.8,0.1-1.7-0.4-2.4C357.3,46.6,356.6,46.1,355.8,45.9"/>
		<path className="st0" d="M375.7,72c-5.6,0-9.7-4.3-9.7-10.2c0-5.9,4.1-10.2,9.7-10.2c5.6,0,9.7,4.3,9.7,10.2
			C385.4,67.7,381.4,72,375.7,72 M388.5,46.3H388c-1.6,0-2.9,1.3-2.9,2.9v0.3c-2.6-2.5-6-3.8-10-3.8c-8.8,0-15.5,6.9-15.5,16.1
			s6.7,16.1,15.5,16.1c4,0,7.4-1.3,10-3.8v0.2c0,1.6,1.3,2.9,2.9,2.9h0.5c1.6,0,2.9-1.3,2.9-2.9V49.2
			C391.4,47.6,390.1,46.3,388.5,46.3"/>
		<path className="st0" d="M423.1,61.8c0,5.9-4.1,10.2-9.7,10.2c-5.6,0-9.7-4.3-9.7-10.2c0-5.9,4.1-10.2,9.7-10.2
			C419,51.6,423.1,55.9,423.1,61.8 M426.1,30.9h-0.5c-1.6,0-2.9,1.3-2.9,2.9v15.7c-2.6-2.5-6-3.8-10-3.8c-8.8,0-15.5,6.9-15.5,16.1
			c0,9.2,6.7,16.1,15.5,16.1c4,0,7.4-1.3,10-3.8v0.2c0,1.6,1.3,2.9,2.9,2.9h0.5c1.6,0,2.9-1.3,2.9-2.9V33.8
			C429,32.2,427.7,30.9,426.1,30.9"/>
		<path className="st0" d="M484.5,59l-3.5-0.4c-4.7-0.6-5.3-2.1-5.3-3.4c0-2.4,2.4-3.9,6.2-3.9c2.4,0,5.1,0.6,7.4,1.6
			c1.4,0.6,3.1,0.1,3.8-1.2c0.4-0.7,0.5-1.5,0.2-2.2c-0.2-0.7-0.7-1.3-1.4-1.6c-2.9-1.4-6.5-2.1-10.1-2.1c-7.6,0-12.6,3.8-12.6,9.7
			c0,3.5,1.8,7.9,10.4,8.9l3.5,0.4c5.5,0.7,5.5,2.8,5.5,3.5c0,2.5-2.7,4-7.4,4c-3.2,0-5.9-0.6-8.1-1.9c-1.3-0.8-3-0.3-3.8,1
			c-0.4,0.6-0.5,1.4-0.3,2.1c0.2,0.7,0.7,1.4,1.3,1.7c4.2,2.3,8.6,2.6,10.9,2.6c8.4,0,13.8-3.9,13.8-9.9
			C495,64.5,493.2,60.2,484.5,59"/>
		<path className="st0" d="M458.5,58.9h-17c1-4.7,4.2-7.6,8.7-7.6C454.6,51.4,457.7,54.2,458.5,58.9 M450.3,45.7
			c-8.9,0-15.4,6.8-15.4,16.1c0,9.5,6.5,16.1,15.7,16.1c4.4,0,7.9-1.1,11-3.3c0.5-0.4,0.9-1,1-1.7c0.1-0.7-0.1-1.4-0.5-2
			c-1-1.2-2.7-1.6-4.1-0.7c-2.2,1.4-4.6,2.1-7.1,2.1c-5.1,0-8.7-3.1-9.5-8.1h21c1.4,0,2.5-1.1,2.5-2.5v0
			C464.9,52.3,458.8,45.7,450.3,45.7"/>
	</g>
	<g>
		<path className="st1" d="M74.9,43.4c0.9,0.9,2,1.3,3.1,1.3s2.2-0.4,3.1-1.3l15.7-15.7c1.7-1.7,1.7-4.5,0-6.2c-1.7-1.7-4.5-1.7-6.2,0
			L74.9,37.2C73.2,38.9,73.2,41.7,74.9,43.4z"/>
		<path className="st1" d="M89,50.9c-1.7-1.7-4.3-1.7-6-0.2L60.5,73.3c-1.3,1.3-3.3,1.3-4.6,0c-1.3-1.3-1.3-3.3,0-4.6l8.1-8.1l0,0
			l8.4-8.4c1.7-1.7,1.7-4.5,0-6.2c-1.7-1.7-4.5-1.7-6.2,0l-4.9,4.9l0,0l-0.8,0.8c-1.3,1.3-3.3,1.3-4.6,0c-1.3-1.3-1.3-3.3,0-4.6
			l3.4-3.4l0,0l16.1-16.1c1.7-1.7,1.7-4.5,0-6.2c-1.7-1.7-4.5-1.7-6.2,0l-9.5,9.5c-0.9,0.8-2,1.3-3.1,1.3c-1.1,0-2.1-0.4-2.9-1.1
			l-9-9c-7.7-7.7-20.2-7.7-27.9,0C13,25.7,11,30.6,11,35.9c0,5.3,2.1,10.2,5.8,13.9l36.6,36.6c0,0,0.1,0.1,0.1,0.1
			c0.9,0.9,2,1.3,3.1,1.3c1.1,0,2.2-0.4,3.1-1.3L89,57.1C90.7,55.4,90.7,52.6,89,50.9z"/>
		<circle className="st1" cx="94.1" cy="44.7" r="4.4"/>
	</g>
	<g>
		<path className="st0" d="M508.8,74.7c0,2.4-2,4.4-4.4,4.4c-2.5,0-4.5-2-4.5-4.4c0-2.4,2-4.4,4.5-4.4C506.8,70.3,508.8,72.3,508.8,74.7
			z M507.7,74.7c0-1.9-1.5-3.4-3.4-3.4c-1.9,0-3.4,1.5-3.4,3.4c0,1.9,1.5,3.4,3.4,3.4C506.2,78.1,507.7,76.6,507.7,74.7z
			 M506.2,73.9c0,0.7-0.5,1.1-1.3,1.2l1.3,1.5h-1l-1.2-1.5h-0.4v1.5h-0.9v-4h1.9C505.7,72.6,506.2,73.1,506.2,73.9z M503.6,73.4v1.1
			h1c0.5,0,0.7-0.2,0.7-0.5c0-0.4-0.3-0.5-0.7-0.5H503.6z"/>
	</g>
</g>
</svg>
